# Blender 4.0.2
# www.blender.org
mtllib Track.mtl
o Track
v -1.000000 0.083949 -0.914675
v 1.000000 0.083949 -0.914675
v -1.000000 0.083949 -0.505325
v 1.000000 0.083949 -0.505325
v 0.883202 0.125747 0.001958
v 0.534024 0.125747 0.001958
v 0.883202 0.125747 -1.421958
v 0.534024 0.125747 -1.421958
v 0.883202 0.125747 -1.218542
v 0.883202 0.125747 -1.015125
v 0.883202 0.125747 -0.811708
v 0.883202 0.125747 -0.608292
v 0.883202 0.125747 -0.404875
v 0.883202 0.125747 -0.201458
v 0.534024 0.125747 -0.201458
v 0.534024 0.125747 -0.404875
v 0.534024 0.125747 -0.608292
v 0.534024 0.125747 -0.811708
v 0.534024 0.125747 -1.015125
v 0.534024 0.125747 -1.218542
v -0.883202 0.125747 0.001958
v -0.534024 0.125747 0.001958
v -0.883202 0.125747 -1.421958
v -0.534024 0.125747 -1.421958
v -0.883202 0.125747 -1.218542
v -0.883202 0.125747 -1.015125
v -0.883202 0.125747 -0.811708
v -0.883202 0.125747 -0.608292
v -0.883202 0.125747 -0.404875
v -0.883202 0.125747 -0.201458
v -0.534024 0.125747 -0.201458
v -0.534024 0.125747 -0.404875
v -0.534024 0.125747 -0.608292
v -0.534024 0.125747 -0.811708
v -0.534024 0.125747 -1.015125
v -0.534024 0.125747 -1.218542
v -0.600000 0.083949 -0.914675
v -0.200000 0.083949 -0.914675
v 0.200000 0.083949 -0.914675
v 0.600000 0.083949 -0.914675
v 0.600000 0.083949 -0.505325
v 0.200000 0.083949 -0.505325
v -0.200000 0.083949 -0.505325
v -0.600000 0.083949 -0.505325
v -1.000000 -0.083949 -0.914675
v 1.000000 -0.083949 -0.914675
v -1.000000 -0.083949 -0.505325
v 1.000000 -0.083949 -0.505325
v 0.883202 -0.125747 0.001958
v 0.534024 -0.125747 0.001958
v 0.883202 -0.125747 -1.421958
v 0.534024 -0.125747 -1.421958
v 0.883202 -0.125747 -1.218542
v 0.883202 -0.125747 -1.015125
v 0.883202 -0.125747 -0.811708
v 0.883202 -0.125747 -0.608292
v 0.883202 -0.125747 -0.404875
v 0.883202 -0.125747 -0.201458
v 0.534024 -0.125747 -0.201458
v 0.534024 -0.125747 -0.404875
v 0.534024 -0.125747 -0.608292
v 0.534024 -0.125747 -0.811708
v 0.534024 -0.125747 -1.015125
v 0.534024 -0.125747 -1.218542
v -0.883202 -0.125747 0.001958
v -0.534024 -0.125747 0.001958
v -0.883202 -0.125747 -1.421958
v -0.534024 -0.125747 -1.421958
v -0.883202 -0.125747 -1.218542
v -0.883202 -0.125747 -1.015125
v -0.883202 -0.125747 -0.811708
v -0.883202 -0.125747 -0.608292
v -0.883202 -0.125747 -0.404875
v -0.883202 -0.125747 -0.201458
v -0.534024 -0.125747 -0.201458
v -0.534024 -0.125747 -0.404875
v -0.534024 -0.125747 -0.608292
v -0.534024 -0.125747 -0.811708
v -0.534024 -0.125747 -1.015125
v -0.534024 -0.125747 -1.218542
v -0.600000 -0.083949 -0.914675
v -0.200000 -0.083949 -0.914675
v 0.200000 -0.083949 -0.914675
v 0.600000 -0.083949 -0.914675
v 0.600000 -0.083949 -0.505325
v 0.200000 -0.083949 -0.505325
v -0.200000 -0.083949 -0.505325
v -0.600000 -0.083949 -0.505325
v -1.000000 0.083948 -2.338592
v 1.000000 0.083948 -2.338592
v -1.000000 0.083948 -1.929242
v 1.000000 0.083948 -1.929242
v 0.883202 0.125747 -1.421958
v 0.534024 0.125747 -1.421958
v 0.883202 0.125746 -2.845875
v 0.534024 0.125746 -2.845875
v 0.883202 0.125746 -2.642458
v 0.883202 0.125746 -2.439042
v 0.883202 0.125747 -2.235625
v 0.883202 0.125747 -2.032208
v 0.883202 0.125747 -1.828792
v 0.883202 0.125747 -1.625375
v 0.534024 0.125747 -1.625375
v 0.534024 0.125747 -1.828792
v 0.534024 0.125747 -2.032209
v 0.534024 0.125747 -2.235625
v 0.534024 0.125746 -2.439042
v 0.534024 0.125746 -2.642458
v -0.883202 0.125747 -1.421958
v -0.534024 0.125747 -1.421958
v -0.883202 0.125746 -2.845875
v -0.534024 0.125746 -2.845875
v -0.883202 0.125746 -2.642458
v -0.883202 0.125746 -2.439042
v -0.883202 0.125747 -2.235625
v -0.883202 0.125747 -2.032208
v -0.883202 0.125747 -1.828792
v -0.883202 0.125747 -1.625375
v -0.534024 0.125747 -1.625375
v -0.534024 0.125747 -1.828792
v -0.534024 0.125747 -2.032209
v -0.534024 0.125747 -2.235625
v -0.534024 0.125746 -2.439042
v -0.534024 0.125746 -2.642458
v -0.600000 0.083948 -2.338592
v -0.200000 0.083948 -2.338592
v 0.200000 0.083948 -2.338592
v 0.600000 0.083948 -2.338592
v 0.600000 0.083948 -1.929242
v 0.200000 0.083948 -1.929242
v -0.200000 0.083948 -1.929242
v -0.600000 0.083948 -1.929242
v -1.000000 -0.083949 -2.338592
v 1.000000 -0.083949 -2.338592
v -1.000000 -0.083949 -1.929242
v 1.000000 -0.083949 -1.929242
v 0.883202 -0.125747 -1.421958
v 0.534024 -0.125747 -1.421958
v 0.883202 -0.125747 -2.845875
v 0.534024 -0.125747 -2.845875
v 0.883202 -0.125747 -2.642458
v 0.883202 -0.125747 -2.439042
v 0.883202 -0.125747 -2.235625
v 0.883202 -0.125747 -2.032208
v 0.883202 -0.125747 -1.828792
v 0.883202 -0.125747 -1.625375
v 0.534024 -0.125747 -1.625375
v 0.534024 -0.125747 -1.828792
v 0.534024 -0.125747 -2.032209
v 0.534024 -0.125747 -2.235625
v 0.534024 -0.125747 -2.439042
v 0.534024 -0.125747 -2.642458
v -0.883202 -0.125747 -1.421958
v -0.534024 -0.125747 -1.421958
v -0.883202 -0.125747 -2.845875
v -0.534024 -0.125747 -2.845875
v -0.883202 -0.125747 -2.642458
v -0.883202 -0.125747 -2.439042
v -0.883202 -0.125747 -2.235625
v -0.883202 -0.125747 -2.032208
v -0.883202 -0.125747 -1.828792
v -0.883202 -0.125747 -1.625375
v -0.534024 -0.125747 -1.625375
v -0.534024 -0.125747 -1.828792
v -0.534024 -0.125747 -2.032209
v -0.534024 -0.125747 -2.235625
v -0.534024 -0.125747 -2.439042
v -0.534024 -0.125747 -2.642458
v -0.600000 -0.083949 -2.338592
v -0.200000 -0.083949 -2.338592
v 0.200000 -0.083949 -2.338592
v 0.600000 -0.083949 -2.338592
v 0.600000 -0.083949 -1.929242
v 0.200000 -0.083949 -1.929242
v -0.200000 -0.083949 -1.929242
v -0.600000 -0.083949 -1.929242
v -1.000000 0.083948 -3.762509
v 1.000000 0.083948 -3.762509
v -1.000000 0.083948 -3.353158
v 1.000000 0.083948 -3.353158
v 0.883202 0.125746 -2.845876
v 0.534024 0.125746 -2.845876
v 0.883202 0.125746 -4.269793
v 0.534024 0.125746 -4.269793
v 0.883202 0.125746 -4.066376
v 0.883202 0.125746 -3.862959
v 0.883202 0.125746 -3.659542
v 0.883202 0.125746 -3.456125
v 0.883202 0.125746 -3.252709
v 0.883202 0.125746 -3.049292
v 0.534024 0.125746 -3.049292
v 0.534024 0.125746 -3.252709
v 0.534024 0.125746 -3.456125
v 0.534024 0.125746 -3.659542
v 0.534024 0.125746 -3.862959
v 0.534024 0.125746 -4.066376
v -0.883202 0.125746 -2.845876
v -0.534024 0.125746 -2.845876
v -0.883202 0.125746 -4.269793
v -0.534024 0.125746 -4.269793
v -0.883202 0.125746 -4.066376
v -0.883202 0.125746 -3.862959
v -0.883202 0.125746 -3.659542
v -0.883202 0.125746 -3.456125
v -0.883202 0.125746 -3.252709
v -0.883202 0.125746 -3.049292
v -0.534024 0.125746 -3.049292
v -0.534024 0.125746 -3.252709
v -0.534024 0.125746 -3.456125
v -0.534024 0.125746 -3.659542
v -0.534024 0.125746 -3.862959
v -0.534024 0.125746 -4.066376
v -0.600000 0.083948 -3.762509
v -0.200000 0.083948 -3.762509
v 0.200000 0.083948 -3.762509
v 0.600000 0.083948 -3.762509
v 0.600000 0.083948 -3.353158
v 0.200000 0.083948 -3.353158
v -0.200000 0.083948 -3.353158
v -0.600000 0.083948 -3.353158
v -1.000000 -0.083949 -3.762509
v 1.000000 -0.083949 -3.762509
v -1.000000 -0.083949 -3.353158
v 1.000000 -0.083949 -3.353158
v 0.883202 -0.125747 -2.845876
v 0.534024 -0.125747 -2.845876
v 0.883202 -0.125748 -4.269793
v 0.534024 -0.125748 -4.269793
v 0.883202 -0.125748 -4.066376
v 0.883202 -0.125748 -3.862959
v 0.883202 -0.125747 -3.659542
v 0.883202 -0.125747 -3.456125
v 0.883202 -0.125747 -3.252709
v 0.883202 -0.125747 -3.049292
v 0.534024 -0.125747 -3.049292
v 0.534024 -0.125747 -3.252709
v 0.534024 -0.125747 -3.456125
v 0.534024 -0.125747 -3.659542
v 0.534024 -0.125748 -3.862959
v 0.534024 -0.125748 -4.066376
v -0.883202 -0.125747 -2.845876
v -0.534024 -0.125747 -2.845876
v -0.883202 -0.125748 -4.269793
v -0.534024 -0.125748 -4.269793
v -0.883202 -0.125748 -4.066376
v -0.883202 -0.125748 -3.862959
v -0.883202 -0.125747 -3.659542
v -0.883202 -0.125747 -3.456125
v -0.883202 -0.125747 -3.252709
v -0.883202 -0.125747 -3.049292
v -0.534024 -0.125747 -3.049292
v -0.534024 -0.125747 -3.252709
v -0.534024 -0.125747 -3.456125
v -0.534024 -0.125747 -3.659542
v -0.534024 -0.125748 -3.862959
v -0.534024 -0.125748 -4.066376
v -0.600000 -0.083949 -3.762509
v -0.200000 -0.083949 -3.762509
v 0.200000 -0.083949 -3.762509
v 0.600000 -0.083949 -3.762509
v 0.600000 -0.083949 -3.353158
v 0.200000 -0.083949 -3.353158
v -0.200000 -0.083949 -3.353158
v -0.600000 -0.083949 -3.353158
v -1.000000 0.083948 -5.186426
v 1.000000 0.083948 -5.186426
v -1.000000 0.083948 -4.777076
v 1.000000 0.083948 -4.777076
v 0.883202 0.125746 -4.269793
v 0.534024 0.125746 -4.269793
v 0.883202 0.125746 -5.693709
v 0.534024 0.125746 -5.693709
v 0.883202 0.125746 -5.490293
v 0.883202 0.125746 -5.286876
v 0.883202 0.125746 -5.083459
v 0.883202 0.125746 -4.880043
v 0.883202 0.125746 -4.676626
v 0.883202 0.125746 -4.473209
v 0.534024 0.125746 -4.473209
v 0.534024 0.125746 -4.676626
v 0.534024 0.125746 -4.880043
v 0.534024 0.125746 -5.083459
v 0.534024 0.125746 -5.286876
v 0.534024 0.125746 -5.490293
v -0.883202 0.125746 -4.269793
v -0.534024 0.125746 -4.269793
v -0.883202 0.125746 -5.693709
v -0.534024 0.125746 -5.693709
v -0.883202 0.125746 -5.490293
v -0.883202 0.125746 -5.286876
v -0.883202 0.125746 -5.083459
v -0.883202 0.125746 -4.880043
v -0.883202 0.125746 -4.676626
v -0.883202 0.125746 -4.473209
v -0.534024 0.125746 -4.473209
v -0.534024 0.125746 -4.676626
v -0.534024 0.125746 -4.880043
v -0.534024 0.125746 -5.083459
v -0.534024 0.125746 -5.286876
v -0.534024 0.125746 -5.490293
v -0.600000 0.083948 -5.186426
v -0.200000 0.083948 -5.186426
v 0.200000 0.083948 -5.186426
v 0.600000 0.083948 -5.186426
v 0.600000 0.083948 -4.777076
v 0.200000 0.083948 -4.777076
v -0.200000 0.083948 -4.777076
v -0.600000 0.083948 -4.777076
v -1.000000 -0.083950 -5.186426
v 1.000000 -0.083950 -5.186426
v -1.000000 -0.083950 -4.777076
v 1.000000 -0.083950 -4.777076
v 0.883202 -0.125748 -4.269793
v 0.534024 -0.125748 -4.269793
v 0.883202 -0.125748 -5.693709
v 0.534024 -0.125748 -5.693709
v 0.883202 -0.125748 -5.490293
v 0.883202 -0.125748 -5.286876
v 0.883202 -0.125748 -5.083459
v 0.883202 -0.125748 -4.880043
v 0.883202 -0.125748 -4.676626
v 0.883202 -0.125748 -4.473209
v 0.534024 -0.125748 -4.473209
v 0.534024 -0.125748 -4.676626
v 0.534024 -0.125748 -4.880043
v 0.534024 -0.125748 -5.083459
v 0.534024 -0.125748 -5.286876
v 0.534024 -0.125748 -5.490293
v -0.883202 -0.125748 -4.269793
v -0.534024 -0.125748 -4.269793
v -0.883202 -0.125748 -5.693709
v -0.534024 -0.125748 -5.693709
v -0.883202 -0.125748 -5.490293
v -0.883202 -0.125748 -5.286876
v -0.883202 -0.125748 -5.083459
v -0.883202 -0.125748 -4.880043
v -0.883202 -0.125748 -4.676626
v -0.883202 -0.125748 -4.473209
v -0.534024 -0.125748 -4.473209
v -0.534024 -0.125748 -4.676626
v -0.534024 -0.125748 -4.880043
v -0.534024 -0.125748 -5.083459
v -0.534024 -0.125748 -5.286876
v -0.534024 -0.125748 -5.490293
v -0.600000 -0.083950 -5.186426
v -0.200000 -0.083950 -5.186426
v 0.200000 -0.083950 -5.186426
v 0.600000 -0.083950 -5.186426
v 0.600000 -0.083950 -4.777076
v 0.200000 -0.083950 -4.777076
v -0.200000 -0.083950 -4.777076
v -0.600000 -0.083950 -4.777076
vn -0.0000 1.0000 -0.0000
vn -1.0000 -0.0000 -0.0000
vn 1.0000 -0.0000 -0.0000
vn -0.0000 -0.0000 1.0000
vn -0.0000 -0.0000 -1.0000
vn -0.0000 -1.0000 -0.0000
vt 0.625000 0.700000
vt 0.875000 0.700000
vt 0.875000 0.750000
vt 0.625000 0.750000
vt 1.000000 0.714286
vt 1.000000 0.857143
vt 0.625000 1.000000
vt 0.625000 0.250000
vt 0.625000 0.200000
vt 0.000000 0.857143
vt 0.000000 1.000000
vt 1.000000 1.000000
vt 0.000000 0.000000
vt 0.000000 0.142857
vt 1.000000 0.142857
vt 1.000000 0.000000
vt 0.000000 0.285714
vt 1.000000 0.285714
vt 0.000000 0.428571
vt 1.000000 0.428571
vt 0.000000 0.571429
vt 1.000000 0.571429
vt 0.000000 0.714286
vt 0.625000 0.500000
vt 0.625000 0.550000
vt 0.625000 0.600000
vt 0.625000 0.650000
vt 0.625000 0.050000
vt 0.625000 0.000000
vt 0.625000 0.100000
vt 0.625000 0.150000
vt 0.875000 0.500000
vt 0.875000 0.550000
vt 0.875000 0.600000
vt 0.875000 0.650000
s 1
usemtl White
f 63/5/2 19/5/2 20/6/2 64/6/2
f 9/10/1 7/11/1 8/12/1 20/6/1
f 5/13/1 14/14/1 15/15/1 6/16/1
f 14/14/1 13/17/1 16/18/1 15/15/1
f 13/17/1 12/19/1 17/20/1 16/18/1
f 12/19/1 11/21/1 18/22/1 17/20/1
f 11/21/1 10/23/1 19/5/1 18/22/1
f 10/23/1 9/10/1 20/6/1 19/5/1
f 25/10/1 36/6/1 24/12/1 23/11/1
f 21/13/1 22/16/1 31/15/1 30/14/1
f 30/14/1 31/15/1 32/18/1 29/17/1
f 29/17/1 32/18/1 33/20/1 28/19/1
f 28/19/1 33/20/1 34/22/1 27/21/1
f 27/21/1 34/22/1 35/5/1 26/23/1
f 26/23/1 35/5/1 36/6/1 25/10/1
f 62/22/2 18/22/2 19/5/2 63/5/2
f 61/20/2 17/20/2 18/22/2 62/22/2
f 60/18/2 16/18/2 17/20/2 61/20/2
f 59/15/2 15/15/2 16/18/2 60/18/2
f 50/16/2 6/16/2 15/15/2 59/15/2
f 57/17/3 13/17/3 14/14/3 58/14/3
f 56/19/3 12/19/3 13/17/3 57/17/3
f 55/21/3 11/21/3 12/19/3 56/19/3
f 54/23/3 10/23/3 11/21/3 55/21/3
f 53/10/3 9/10/3 10/23/3 54/23/3
f 51/11/3 7/11/3 9/10/3 53/10/3
f 58/14/3 14/14/3 5/13/3 49/13/3
f 64/6/2 20/6/2 8/12/2 52/12/2
f 49/13/4 5/13/4 6/16/4 50/16/4
f 52/12/5 8/12/5 7/11/5 51/11/5
f 79/5/3 80/6/3 36/6/3 35/5/3
f 78/22/3 79/5/3 35/5/3 34/22/3
f 77/20/3 78/22/3 34/22/3 33/20/3
f 76/18/3 77/20/3 33/20/3 32/18/3
f 75/15/3 76/18/3 32/18/3 31/15/3
f 66/16/3 75/15/3 31/15/3 22/16/3
f 73/17/2 74/14/2 30/14/2 29/17/2
f 72/19/2 73/17/2 29/17/2 28/19/2
f 71/21/2 72/19/2 28/19/2 27/21/2
f 70/23/2 71/21/2 27/21/2 26/23/2
f 69/10/2 70/23/2 26/23/2 25/10/2
f 67/11/2 69/10/2 25/10/2 23/11/2
f 74/14/2 65/13/2 21/13/2 30/14/2
f 80/6/3 68/12/3 24/12/3 36/6/3
f 65/13/4 66/16/4 22/16/4 21/13/4
f 68/12/5 67/11/5 23/11/5 24/12/5
f 53/10/6 64/6/6 52/12/6 51/11/6
f 49/13/6 50/16/6 59/15/6 58/14/6
f 58/14/6 59/15/6 60/18/6 57/17/6
f 57/17/6 60/18/6 61/20/6 56/19/6
f 56/19/6 61/20/6 62/22/6 55/21/6
f 55/21/6 62/22/6 63/5/6 54/23/6
f 54/23/6 63/5/6 64/6/6 53/10/6
f 69/10/6 67/11/6 68/12/6 80/6/6
f 65/13/6 74/14/6 75/15/6 66/16/6
f 74/14/6 73/17/6 76/18/6 75/15/6
f 73/17/6 72/19/6 77/20/6 76/18/6
f 72/19/6 71/21/6 78/22/6 77/20/6
f 71/21/6 70/23/6 79/5/6 78/22/6
f 70/23/6 69/10/6 80/6/6 79/5/6
f 151/5/2 107/5/2 108/6/2 152/6/2
f 97/10/1 95/11/1 96/12/1 108/6/1
f 93/13/1 102/14/1 103/15/1 94/16/1
f 102/14/1 101/17/1 104/18/1 103/15/1
f 101/17/1 100/19/1 105/20/1 104/18/1
f 100/19/1 99/21/1 106/22/1 105/20/1
f 99/21/1 98/23/1 107/5/1 106/22/1
f 98/23/1 97/10/1 108/6/1 107/5/1
f 113/10/1 124/6/1 112/12/1 111/11/1
f 109/13/1 110/16/1 119/15/1 118/14/1
f 118/14/1 119/15/1 120/18/1 117/17/1
f 117/17/1 120/18/1 121/20/1 116/19/1
f 116/19/1 121/20/1 122/22/1 115/21/1
f 115/21/1 122/22/1 123/5/1 114/23/1
f 114/23/1 123/5/1 124/6/1 113/10/1
f 150/22/2 106/22/2 107/5/2 151/5/2
f 149/20/2 105/20/2 106/22/2 150/22/2
f 148/18/2 104/18/2 105/20/2 149/20/2
f 147/15/2 103/15/2 104/18/2 148/18/2
f 138/16/2 94/16/2 103/15/2 147/15/2
f 145/17/3 101/17/3 102/14/3 146/14/3
f 144/19/3 100/19/3 101/17/3 145/17/3
f 143/21/3 99/21/3 100/19/3 144/19/3
f 142/23/3 98/23/3 99/21/3 143/21/3
f 141/10/3 97/10/3 98/23/3 142/23/3
f 139/11/3 95/11/3 97/10/3 141/10/3
f 146/14/3 102/14/3 93/13/3 137/13/3
f 152/6/2 108/6/2 96/12/2 140/12/2
f 137/13/4 93/13/4 94/16/4 138/16/4
f 140/12/5 96/12/5 95/11/5 139/11/5
f 167/5/3 168/6/3 124/6/3 123/5/3
f 166/22/3 167/5/3 123/5/3 122/22/3
f 165/20/3 166/22/3 122/22/3 121/20/3
f 164/18/3 165/20/3 121/20/3 120/18/3
f 163/15/3 164/18/3 120/18/3 119/15/3
f 154/16/3 163/15/3 119/15/3 110/16/3
f 161/17/2 162/14/2 118/14/2 117/17/2
f 160/19/2 161/17/2 117/17/2 116/19/2
f 159/21/2 160/19/2 116/19/2 115/21/2
f 158/23/2 159/21/2 115/21/2 114/23/2
f 157/10/2 158/23/2 114/23/2 113/10/2
f 155/11/2 157/10/2 113/10/2 111/11/2
f 162/14/2 153/13/2 109/13/2 118/14/2
f 168/6/3 156/12/3 112/12/3 124/6/3
f 153/13/4 154/16/4 110/16/4 109/13/4
f 156/12/5 155/11/5 111/11/5 112/12/5
f 141/10/6 152/6/6 140/12/6 139/11/6
f 137/13/6 138/16/6 147/15/6 146/14/6
f 146/14/6 147/15/6 148/18/6 145/17/6
f 145/17/6 148/18/6 149/20/6 144/19/6
f 144/19/6 149/20/6 150/22/6 143/21/6
f 143/21/6 150/22/6 151/5/6 142/23/6
f 142/23/6 151/5/6 152/6/6 141/10/6
f 157/10/6 155/11/6 156/12/6 168/6/6
f 153/13/6 162/14/6 163/15/6 154/16/6
f 162/14/6 161/17/6 164/18/6 163/15/6
f 161/17/6 160/19/6 165/20/6 164/18/6
f 160/19/6 159/21/6 166/22/6 165/20/6
f 159/21/6 158/23/6 167/5/6 166/22/6
f 158/23/6 157/10/6 168/6/6 167/5/6
f 239/5/2 195/5/2 196/6/2 240/6/2
f 185/10/1 183/11/1 184/12/1 196/6/1
f 181/13/1 190/14/1 191/15/1 182/16/1
f 190/14/1 189/17/1 192/18/1 191/15/1
f 189/17/1 188/19/1 193/20/1 192/18/1
f 188/19/1 187/21/1 194/22/1 193/20/1
f 187/21/1 186/23/1 195/5/1 194/22/1
f 186/23/1 185/10/1 196/6/1 195/5/1
f 201/10/1 212/6/1 200/12/1 199/11/1
f 197/13/1 198/16/1 207/15/1 206/14/1
f 206/14/1 207/15/1 208/18/1 205/17/1
f 205/17/1 208/18/1 209/20/1 204/19/1
f 204/19/1 209/20/1 210/22/1 203/21/1
f 203/21/1 210/22/1 211/5/1 202/23/1
f 202/23/1 211/5/1 212/6/1 201/10/1
f 238/22/2 194/22/2 195/5/2 239/5/2
f 237/20/2 193/20/2 194/22/2 238/22/2
f 236/18/2 192/18/2 193/20/2 237/20/2
f 235/15/2 191/15/2 192/18/2 236/18/2
f 226/16/2 182/16/2 191/15/2 235/15/2
f 233/17/3 189/17/3 190/14/3 234/14/3
f 232/19/3 188/19/3 189/17/3 233/17/3
f 231/21/3 187/21/3 188/19/3 232/19/3
f 230/23/3 186/23/3 187/21/3 231/21/3
f 229/10/3 185/10/3 186/23/3 230/23/3
f 227/11/3 183/11/3 185/10/3 229/10/3
f 234/14/3 190/14/3 181/13/3 225/13/3
f 240/6/2 196/6/2 184/12/2 228/12/2
f 225/13/4 181/13/4 182/16/4 226/16/4
f 228/12/5 184/12/5 183/11/5 227/11/5
f 255/5/3 256/6/3 212/6/3 211/5/3
f 254/22/3 255/5/3 211/5/3 210/22/3
f 253/20/3 254/22/3 210/22/3 209/20/3
f 252/18/3 253/20/3 209/20/3 208/18/3
f 251/15/3 252/18/3 208/18/3 207/15/3
f 242/16/3 251/15/3 207/15/3 198/16/3
f 249/17/2 250/14/2 206/14/2 205/17/2
f 248/19/2 249/17/2 205/17/2 204/19/2
f 247/21/2 248/19/2 204/19/2 203/21/2
f 246/23/2 247/21/2 203/21/2 202/23/2
f 245/10/2 246/23/2 202/23/2 201/10/2
f 243/11/2 245/10/2 201/10/2 199/11/2
f 250/14/2 241/13/2 197/13/2 206/14/2
f 256/6/3 244/12/3 200/12/3 212/6/3
f 241/13/4 242/16/4 198/16/4 197/13/4
f 244/12/5 243/11/5 199/11/5 200/12/5
f 229/10/6 240/6/6 228/12/6 227/11/6
f 225/13/6 226/16/6 235/15/6 234/14/6
f 234/14/6 235/15/6 236/18/6 233/17/6
f 233/17/6 236/18/6 237/20/6 232/19/6
f 232/19/6 237/20/6 238/22/6 231/21/6
f 231/21/6 238/22/6 239/5/6 230/23/6
f 230/23/6 239/5/6 240/6/6 229/10/6
f 245/10/6 243/11/6 244/12/6 256/6/6
f 241/13/6 250/14/6 251/15/6 242/16/6
f 250/14/6 249/17/6 252/18/6 251/15/6
f 249/17/6 248/19/6 253/20/6 252/18/6
f 248/19/6 247/21/6 254/22/6 253/20/6
f 247/21/6 246/23/6 255/5/6 254/22/6
f 246/23/6 245/10/6 256/6/6 255/5/6
f 327/5/2 283/5/2 284/6/2 328/6/2
f 273/10/1 271/11/1 272/12/1 284/6/1
f 269/13/1 278/14/1 279/15/1 270/16/1
f 278/14/1 277/17/1 280/18/1 279/15/1
f 277/17/1 276/19/1 281/20/1 280/18/1
f 276/19/1 275/21/1 282/22/1 281/20/1
f 275/21/1 274/23/1 283/5/1 282/22/1
f 274/23/1 273/10/1 284/6/1 283/5/1
f 289/10/1 300/6/1 288/12/1 287/11/1
f 285/13/1 286/16/1 295/15/1 294/14/1
f 294/14/1 295/15/1 296/18/1 293/17/1
f 293/17/1 296/18/1 297/20/1 292/19/1
f 292/19/1 297/20/1 298/22/1 291/21/1
f 291/21/1 298/22/1 299/5/1 290/23/1
f 290/23/1 299/5/1 300/6/1 289/10/1
f 326/22/2 282/22/2 283/5/2 327/5/2
f 325/20/2 281/20/2 282/22/2 326/22/2
f 324/18/2 280/18/2 281/20/2 325/20/2
f 323/15/2 279/15/2 280/18/2 324/18/2
f 314/16/2 270/16/2 279/15/2 323/15/2
f 321/17/3 277/17/3 278/14/3 322/14/3
f 320/19/3 276/19/3 277/17/3 321/17/3
f 319/21/3 275/21/3 276/19/3 320/19/3
f 318/23/3 274/23/3 275/21/3 319/21/3
f 317/10/3 273/10/3 274/23/3 318/23/3
f 315/11/3 271/11/3 273/10/3 317/10/3
f 322/14/3 278/14/3 269/13/3 313/13/3
f 328/6/2 284/6/2 272/12/2 316/12/2
f 313/13/4 269/13/4 270/16/4 314/16/4
f 316/12/5 272/12/5 271/11/5 315/11/5
f 343/5/3 344/6/3 300/6/3 299/5/3
f 342/22/3 343/5/3 299/5/3 298/22/3
f 341/20/3 342/22/3 298/22/3 297/20/3
f 340/18/3 341/20/3 297/20/3 296/18/3
f 339/15/3 340/18/3 296/18/3 295/15/3
f 330/16/3 339/15/3 295/15/3 286/16/3
f 337/17/2 338/14/2 294/14/2 293/17/2
f 336/19/2 337/17/2 293/17/2 292/19/2
f 335/21/2 336/19/2 292/19/2 291/21/2
f 334/23/2 335/21/2 291/21/2 290/23/2
f 333/10/2 334/23/2 290/23/2 289/10/2
f 331/11/2 333/10/2 289/10/2 287/11/2
f 338/14/2 329/13/2 285/13/2 294/14/2
f 344/6/3 332/12/3 288/12/3 300/6/3
f 329/13/4 330/16/4 286/16/4 285/13/4
f 332/12/5 331/11/5 287/11/5 288/12/5
f 317/10/6 328/6/6 316/12/6 315/11/6
f 313/13/6 314/16/6 323/15/6 322/14/6
f 322/14/6 323/15/6 324/18/6 321/17/6
f 321/17/6 324/18/6 325/20/6 320/19/6
f 320/19/6 325/20/6 326/22/6 319/21/6
f 319/21/6 326/22/6 327/5/6 318/23/6
f 318/23/6 327/5/6 328/6/6 317/10/6
f 333/10/6 331/11/6 332/12/6 344/6/6
f 329/13/6 338/14/6 339/15/6 330/16/6
f 338/14/6 337/17/6 340/18/6 339/15/6
f 337/17/6 336/19/6 341/20/6 340/18/6
f 336/19/6 335/21/6 342/22/6 341/20/6
f 335/21/6 334/23/6 343/5/6 342/22/6
f 334/23/6 333/10/6 344/6/6 343/5/6
usemtl Brown
f 40/1/1 41/2/1 4/3/1 2/4/1
f 4/7/3 48/7/3 46/4/3 2/4/3
f 3/8/4 47/8/4 88/9/4 44/9/4
f 2/4/5 46/4/5 84/1/5 40/1/5
f 1/24/2 45/24/2 47/8/2 3/8/2
f 37/25/5 81/25/5 45/24/5 1/24/5
f 38/26/5 82/26/5 81/25/5 37/25/5
f 39/27/5 83/27/5 82/26/5 38/26/5
f 40/1/5 84/1/5 83/27/5 39/27/5
f 41/28/4 85/28/4 48/29/4 4/29/4
f 42/30/4 86/30/4 85/28/4 41/28/4
f 43/31/4 87/31/4 86/30/4 42/30/4
f 1/24/1 3/32/1 44/33/1 37/25/1
f 37/25/1 44/33/1 43/34/1 38/26/1
f 38/26/1 43/34/1 42/35/1 39/27/1
f 39/27/1 42/35/1 41/2/1 40/1/1
f 84/1/6 46/4/6 48/3/6 85/2/6
f 45/24/6 81/25/6 88/33/6 47/32/6
f 81/25/6 82/26/6 87/34/6 88/33/6
f 82/26/6 83/27/6 86/35/6 87/34/6
f 83/27/6 84/1/6 85/2/6 86/35/6
f 44/9/4 88/9/4 87/31/4 43/31/4
f 128/1/1 129/2/1 92/3/1 90/4/1
f 92/7/3 136/7/3 134/4/3 90/4/3
f 91/8/4 135/8/4 176/9/4 132/9/4
f 90/4/5 134/4/5 172/1/5 128/1/5
f 89/24/2 133/24/2 135/8/2 91/8/2
f 125/25/5 169/25/5 133/24/5 89/24/5
f 126/26/5 170/26/5 169/25/5 125/25/5
f 127/27/5 171/27/5 170/26/5 126/26/5
f 128/1/5 172/1/5 171/27/5 127/27/5
f 129/28/4 173/28/4 136/29/4 92/29/4
f 130/30/4 174/30/4 173/28/4 129/28/4
f 131/31/4 175/31/4 174/30/4 130/30/4
f 89/24/1 91/32/1 132/33/1 125/25/1
f 125/25/1 132/33/1 131/34/1 126/26/1
f 126/26/1 131/34/1 130/35/1 127/27/1
f 127/27/1 130/35/1 129/2/1 128/1/1
f 172/1/6 134/4/6 136/3/6 173/2/6
f 133/24/6 169/25/6 176/33/6 135/32/6
f 169/25/6 170/26/6 175/34/6 176/33/6
f 170/26/6 171/27/6 174/35/6 175/34/6
f 171/27/6 172/1/6 173/2/6 174/35/6
f 132/9/4 176/9/4 175/31/4 131/31/4
f 216/1/1 217/2/1 180/3/1 178/4/1
f 180/7/3 224/7/3 222/4/3 178/4/3
f 179/8/4 223/8/4 264/9/4 220/9/4
f 178/4/5 222/4/5 260/1/5 216/1/5
f 177/24/2 221/24/2 223/8/2 179/8/2
f 213/25/5 257/25/5 221/24/5 177/24/5
f 214/26/5 258/26/5 257/25/5 213/25/5
f 215/27/5 259/27/5 258/26/5 214/26/5
f 216/1/5 260/1/5 259/27/5 215/27/5
f 217/28/4 261/28/4 224/29/4 180/29/4
f 218/30/4 262/30/4 261/28/4 217/28/4
f 219/31/4 263/31/4 262/30/4 218/30/4
f 177/24/1 179/32/1 220/33/1 213/25/1
f 213/25/1 220/33/1 219/34/1 214/26/1
f 214/26/1 219/34/1 218/35/1 215/27/1
f 215/27/1 218/35/1 217/2/1 216/1/1
f 260/1/6 222/4/6 224/3/6 261/2/6
f 221/24/6 257/25/6 264/33/6 223/32/6
f 257/25/6 258/26/6 263/34/6 264/33/6
f 258/26/6 259/27/6 262/35/6 263/34/6
f 259/27/6 260/1/6 261/2/6 262/35/6
f 220/9/4 264/9/4 263/31/4 219/31/4
f 304/1/1 305/2/1 268/3/1 266/4/1
f 268/7/3 312/7/3 310/4/3 266/4/3
f 267/8/4 311/8/4 352/9/4 308/9/4
f 266/4/5 310/4/5 348/1/5 304/1/5
f 265/24/2 309/24/2 311/8/2 267/8/2
f 301/25/5 345/25/5 309/24/5 265/24/5
f 302/26/5 346/26/5 345/25/5 301/25/5
f 303/27/5 347/27/5 346/26/5 302/26/5
f 304/1/5 348/1/5 347/27/5 303/27/5
f 305/28/4 349/28/4 312/29/4 268/29/4
f 306/30/4 350/30/4 349/28/4 305/28/4
f 307/31/4 351/31/4 350/30/4 306/30/4
f 265/24/1 267/32/1 308/33/1 301/25/1
f 301/25/1 308/33/1 307/34/1 302/26/1
f 302/26/1 307/34/1 306/35/1 303/27/1
f 303/27/1 306/35/1 305/2/1 304/1/1
f 348/1/6 310/4/6 312/3/6 349/2/6
f 309/24/6 345/25/6 352/33/6 311/32/6
f 345/25/6 346/26/6 351/34/6 352/33/6
f 346/26/6 347/27/6 350/35/6 351/34/6
f 347/27/6 348/1/6 349/2/6 350/35/6
f 308/9/4 352/9/4 351/31/4 307/31/4
