# Blender 4.0.2
# www.blender.org
mtllib Conveyor.mtl
o Plane
v 0.600864 1.000000 -0.221825
v 0.600863 0.983251 -0.405784
v 0.600863 0.627838 -0.405784
v 0.600864 1.033364 -0.281585
v 0.600864 0.627838 -0.281585
v 0.600864 0.627838 -0.221825
v 0.214594 1.033364 -0.281585
v 0.171676 1.033364 -0.281585
v 0.128757 1.033364 -0.281585
v 0.085838 1.033364 -0.281585
v 0.042919 1.033364 -0.281585
v 0.557945 0.627838 -0.405784
v 0.515026 0.627838 -0.405784
v 0.472107 0.627838 -0.405784
v 0.429188 0.627838 -0.405784
v 0.386270 0.627838 -0.405784
v 0.343351 0.627838 -0.405784
v 0.300432 0.627838 -0.405784
v 0.257513 0.627838 -0.405784
v 0.214594 0.627838 -0.405784
v 0.500720 0.627838 -0.221825
v 0.400576 0.627838 -0.221825
v 0.500720 0.627838 -0.281585
v 0.400576 0.627838 -0.281585
v 0.500720 0.000000 -0.221825
v 0.400576 0.000000 -0.221825
v 0.500720 0.000000 -0.281585
v 0.400576 0.000000 -0.281585
v 0.000001 1.000000 -0.221825
v 0.000001 0.983251 -0.405784
v 0.000001 0.627838 -0.405784
v 0.000001 1.033364 -0.281585
v 0.000001 0.627838 -0.281585
v 0.000001 0.627838 -0.221825
v 0.171676 0.627838 -0.405784
v 0.128757 0.627838 -0.405784
v 0.085838 0.627838 -0.405784
v 0.042919 0.627838 -0.405784
v 0.557945 0.983251 -0.405784
v 0.515026 0.983251 -0.405784
v 0.472107 0.983251 -0.405784
v 0.429188 0.983251 -0.405784
v 0.100144 0.627838 -0.221825
v 0.200288 0.627838 -0.221825
v 0.100144 0.627838 -0.281585
v 0.200288 0.627838 -0.281585
v 0.100144 0.000000 -0.221825
v 0.200288 0.000000 -0.221825
v 0.100144 0.000000 -0.281585
v 0.200288 0.000000 -0.281585
v 0.600864 1.000000 0.221825
v 0.600863 0.983251 0.405784
v 0.600863 0.627838 0.405784
v 0.600864 1.033364 0.281585
v 0.600864 0.627838 0.281585
v 0.600864 0.627838 0.221825
v 0.386270 0.983251 -0.405784
v 0.343351 0.983251 -0.405784
v 0.300432 0.983251 -0.405784
v 0.257513 0.983251 -0.405784
v 0.214594 0.983251 -0.405784
v 0.171676 0.983251 -0.405784
v 0.128757 0.983251 -0.405784
v 0.085838 0.983251 -0.405784
v 0.042919 0.983251 -0.405784
v 0.557945 1.000000 -0.221825
v 0.515026 1.000000 -0.221825
v 0.472107 1.000000 -0.221825
v 0.429188 1.000000 -0.221825
v 0.386270 1.000000 -0.221825
v 0.500720 0.627838 0.221825
v 0.400576 0.627838 0.221825
v 0.500720 0.627838 0.281585
v 0.400576 0.627838 0.281585
v 0.500720 0.000000 0.221825
v 0.400576 0.000000 0.221825
v 0.500720 0.000000 0.281585
v 0.400576 0.000000 0.281585
v 0.000001 1.000000 0.221825
v 0.000001 0.983251 0.405784
v 0.000001 0.627838 0.405784
v 0.000001 1.033364 0.281585
v 0.000001 0.627838 0.281585
v 0.000001 0.627838 0.221825
v 0.343351 1.000000 -0.221825
v 0.300432 1.000000 -0.221825
v 0.257513 1.000000 -0.221825
v 0.214594 1.000000 -0.221825
v 0.171676 1.000000 -0.221825
v 0.128757 1.000000 -0.221825
v 0.085838 1.000000 -0.221825
v 0.042919 1.000000 -0.221825
v 0.100144 0.627838 0.221825
v 0.200288 0.627838 0.221825
v 0.100144 0.627838 0.281585
v 0.200288 0.627838 0.281585
v 0.100144 0.000000 0.221825
v 0.200288 0.000000 0.221825
v 0.100144 0.000000 0.281585
v 0.200288 0.000000 0.281585
v 0.257513 1.033364 -0.281585
v 0.300432 1.033364 -0.281585
v 0.343351 1.033364 -0.281585
v 0.386270 1.033364 -0.281585
v 0.429188 1.033364 -0.281585
v 0.472107 1.033364 -0.281585
v 0.515026 1.033364 -0.281585
v 0.557945 1.033364 -0.281585
v 0.042919 1.000000 0.221825
v 0.085838 1.000000 0.221825
v 0.128757 1.000000 0.221825
v 0.171676 1.000000 0.221825
v 0.214594 1.000000 0.221825
v 0.257513 1.000000 0.221825
v 0.300432 1.000000 0.221825
v 0.343351 1.000000 0.221825
v 0.386270 1.000000 0.221825
v 0.429188 1.000000 0.221825
v 0.472107 1.000000 0.221825
v 0.515026 1.000000 0.221825
v 0.557945 1.000000 0.221825
v 0.042919 0.983251 0.405784
v 0.085838 0.983251 0.405784
v 0.128757 0.983251 0.405784
v 0.171676 0.983251 0.405784
v 0.214594 0.983251 0.405784
v 0.257513 0.983251 0.405784
v 0.300432 0.983251 0.405784
v 0.343351 0.983251 0.405784
v 0.386270 0.983251 0.405784
v 0.429188 0.983251 0.405784
v 0.472107 0.983251 0.405784
v 0.515026 0.983251 0.405784
v 0.557945 0.983251 0.405784
v 0.042919 0.627838 0.405784
v 0.085838 0.627838 0.405784
v 0.128757 0.627838 0.405784
v 0.171676 0.627838 0.405784
v 0.214594 0.627838 0.405784
v 0.257513 0.627838 0.405784
v 0.300432 0.627838 0.405784
v 0.343351 0.627838 0.405784
v 0.386270 0.627838 0.405784
v 0.429188 0.627838 0.405784
v 0.472107 0.627838 0.405784
v 0.515026 0.627838 0.405784
v 0.557945 0.627838 0.405784
v 0.042919 1.033364 0.281585
v 0.085838 1.033364 0.281585
v 0.128757 1.033364 0.281585
v 0.171676 1.033364 0.281585
v 0.214594 1.033364 0.281585
v 0.257513 1.033364 0.281585
v 0.300432 1.033364 0.281585
v 0.343351 1.033364 0.281585
v 0.386270 1.033364 0.281585
v 0.429188 1.033364 0.281585
v 0.472107 1.033364 0.281585
v 0.515026 1.033364 0.281585
v 0.557945 1.033364 0.281585
v 0.557945 0.627838 0.221825
v 0.557945 0.627838 -0.281585
v 0.557945 0.627838 0.281585
v 0.557945 0.627838 -0.221825
v 0.343354 0.627838 0.281585
v 0.343352 0.627838 -0.221825
v 0.343352 0.627838 0.221825
v 0.343353 0.627838 -0.281585
v 0.300431 0.627838 0.221825
v 0.300431 0.627838 -0.221825
v 0.300431 0.627838 0.281585
v 0.300432 0.627838 -0.281585
v 0.257515 0.627838 0.221825
v 0.257517 0.627838 -0.281585
v 0.257513 0.627838 0.281585
v 0.257517 0.627838 -0.221825
v 0.042919 0.627838 0.281585
v 0.042919 0.627838 -0.221825
v 0.042919 0.627838 0.221825
v 0.042919 0.627838 -0.281585
v 0.128757 0.000000 0.281585
v 0.128757 0.627838 -0.221825
v 0.128757 0.000000 0.221825
v 0.128757 0.000000 -0.221825
v 0.128757 0.627838 -0.281585
v 0.128757 0.627838 0.221825
v 0.128757 0.627838 0.281585
v 0.128757 0.000000 -0.281585
v 0.172222 0.627838 -0.221825
v 0.172222 0.000000 -0.221825
v 0.171676 0.627838 0.221825
v 0.171676 0.627838 -0.281585
v 0.171676 0.000000 0.221825
v 0.171676 0.000000 0.281585
v 0.171676 0.627838 0.281585
v 0.173717 0.000000 -0.281585
v 0.472107 0.000000 0.281585
v 0.472107 0.000000 -0.281585
v 0.472107 0.627838 -0.221825
v 0.472107 0.627838 0.221825
v 0.472107 0.000000 -0.221825
v 0.472107 0.000000 0.221825
v 0.472107 0.627838 -0.281585
v 0.472107 0.627838 0.281585
v 0.429188 0.000000 0.281585
v 0.429188 0.000000 -0.281585
v 0.429188 0.627838 -0.221825
v 0.429188 0.000000 0.221825
v 0.429188 0.000000 -0.221825
v 0.429188 0.627838 0.221825
v 0.429188 0.627838 -0.281585
v 0.429188 0.627838 0.281585
vn -0.0000 -0.0000 1.0000
vn 1.0000 -0.0000 -0.0000
vn -0.0000 0.9274 0.3742
vn -0.0000 -1.0000 -0.0000
vn -0.0000 0.8731 0.4875
vn -0.0000 0.8731 -0.4875
vn -1.0000 -0.0000 -0.0000
vn -0.0000 -0.0000 -1.0000
vn -0.0000 1.0000 -0.0000
vn -0.0000 0.9274 -0.3742
vt 1.000000 0.000000
vt 0.666667 0.000000
vt 0.581756 0.000000
vt 0.578592 0.000000
vt 0.333333 0.000000
vt 0.852141 0.000000
vt 0.836494 0.000000
vt 0.857242 0.000000
vt 0.582572 0.000000
vt 0.583042 0.000000
vt 0.431152 0.000000
vt 0.459806 0.000000
vt 0.427522 0.000000
vt 0.426754 0.000000
vt 0.857140 0.000000
vt 0.857140 0.000000
vt 0.857146 0.000000
vt 0.610014 0.000000
vt 0.556335 0.000000
vt 0.467536 0.000000
vt 0.421776 0.000000
vt 0.585738 0.000000
vt 0.874647 0.000000
vt 0.566622 0.000000
vt 0.588358 0.000000
vt 0.428456 0.000000
vt 0.453449 0.000000
vt 0.857146 0.000000
vt 0.580390 0.000000
vt 0.582435 0.000000
vt 0.434717 0.000000
vt 0.416675 0.000000
vt 0.569903 0.000000
vt 0.555501 0.000000
vt 0.605439 0.000000
vt 0.396006 0.000000
vt 0.413347 0.000000
vt 0.427520 0.000000
vt 0.486160 0.000000
vt 0.441151 0.000000
vt 0.427545 0.000000
vt 0.574770 0.000000
vt 0.579413 0.000000
s 0
usemtl Metal_White
f 127/1/1 126/1/1 139/1/1 140/1/1
f 125/1/1 124/1/1 137/1/1 138/1/1
f 123/1/1 122/1/1 135/1/1 136/1/1
f 3/1/2 2/1/2 4/1/2 5/1/2
f 4/1/2 1/1/2 6/1/2 5/1/2
f 157/1/3 156/1/3 130/1/3 131/1/3
f 155/1/3 154/1/3 128/1/3 129/1/3
f 21/2/4 71/2/4 200/3/4 199/4/4
f 106/1/5 105/1/5 69/1/5 68/1/5
f 44/5/4 46/5/4 174/5/4 176/5/4
f 129/1/1 128/1/1 141/1/1 142/1/1
f 105/1/5 104/1/5 70/1/5 69/1/5
f 6/1/4 164/6/4 162/7/4 5/1/4
f 23/2/2 21/2/2 25/2/2 27/2/2
f 117/1/6 116/1/6 155/1/6 156/1/6
f 79/1/7 29/1/7 34/1/7 84/1/7
f 156/1/3 155/1/3 129/1/3 130/1/3
f 6/1/4 56/1/4 161/8/4 164/6/4
f 4/1/5 108/1/5 66/1/5 1/1/5
f 128/1/1 127/1/1 140/1/1 141/1/1
f 124/1/1 123/1/1 136/1/1 137/1/1
f 130/1/1 129/1/1 142/1/1 143/1/1
f 108/1/5 107/1/5 67/1/5 66/1/5
f 132/1/1 131/1/1 144/1/1 145/1/1
f 25/2/4 201/9/4 198/10/4 27/2/4
f 22/5/7 24/5/7 28/5/7 26/5/7
f 24/5/8 211/11/8 206/12/8 28/5/8
f 21/2/1 199/4/1 201/9/1 25/2/1
f 158/1/3 157/1/3 131/1/3 132/1/3
f 133/1/1 132/1/1 145/1/1 146/1/1
f 131/1/1 130/1/1 143/1/1 144/1/1
f 31/1/7 33/1/7 32/1/7 30/1/7
f 32/1/7 33/1/7 34/1/7 29/1/7
f 150/1/3 149/1/3 123/1/3 124/1/3
f 153/1/3 152/1/3 126/1/3 127/1/3
f 44/5/4 94/5/4 191/13/4 189/14/4
f 104/1/5 103/1/5 85/1/5 70/1/5
f 103/1/5 102/1/5 86/1/5 85/1/5
f 23/2/4 13/1/4 12/1/4 162/7/4
f 126/1/1 125/1/1 138/1/1 139/1/1
f 34/1/4 33/1/4 180/15/4 178/16/4
f 45/2/7 49/2/7 47/2/7 43/2/7
f 114/1/6 113/1/6 152/1/6 153/1/6
f 43/2/4 93/2/4 179/17/4 178/16/4
f 7/1/5 8/1/5 89/1/5 88/1/5
f 38/1/8 31/1/8 30/1/8 65/1/8
f 101/1/5 7/1/5 88/1/5 87/1/5
f 65/1/10 30/1/10 32/1/10 11/1/10
f 102/1/5 101/1/5 87/1/5 86/1/5
f 11/1/5 32/1/5 29/1/5 92/1/5
f 47/2/4 49/2/4 188/18/4 184/19/4
f 44/5/2 48/5/2 50/5/2 46/5/2
f 46/5/8 50/5/8 196/20/8 192/21/8
f 43/2/1 47/2/1 184/19/1 182/22/1
f 113/1/6 112/1/6 151/1/6 152/1/6
f 111/1/6 110/1/6 149/1/6 150/1/6
f 54/1/3 160/1/3 134/1/3 52/1/3
f 53/1/2 55/1/2 54/1/2 52/1/2
f 54/1/2 55/1/2 56/1/2 51/1/2
f 72/5/4 167/5/4 166/5/4 22/5/4
f 94/5/4 173/5/4 175/5/4 96/5/4
f 115/1/6 114/1/6 153/1/6 154/1/6
f 154/1/3 153/1/3 127/1/3 128/1/3
f 56/1/4 55/1/4 163/23/4 161/8/4
f 73/2/2 77/2/2 75/2/2 71/2/2
f 160/1/3 159/1/3 133/1/3 134/1/3
f 116/1/6 115/1/6 154/1/6 155/1/6
f 110/1/6 109/1/6 148/1/6 149/1/6
f 118/1/6 117/1/6 156/1/6 157/1/6
f 159/1/3 158/1/3 132/1/3 133/1/3
f 120/1/6 119/1/6 158/1/6 159/1/6
f 75/2/4 77/2/4 197/24/4 202/25/4
f 72/5/7 76/5/7 78/5/7 74/5/7
f 74/5/1 78/5/1 205/26/1 212/27/1
f 71/2/8 75/2/8 202/25/8 200/3/8
f 51/1/6 121/1/6 160/1/6 54/1/6
f 121/1/6 120/1/6 159/1/6 160/1/6
f 119/1/6 118/1/6 157/1/6 158/1/6
f 81/1/7 80/1/7 82/1/7 83/1/7
f 82/1/7 79/1/7 84/1/7 83/1/7
f 152/1/3 151/1/3 125/1/3 126/1/3
f 151/1/3 150/1/3 124/1/3 125/1/3
f 96/5/4 175/5/4 140/1/4 139/1/4
f 112/1/6 111/1/6 150/1/6 151/1/6
f 84/1/4 179/17/4 177/28/4 83/1/4
f 95/2/7 93/2/7 97/2/7 99/2/7
f 134/1/1 133/1/1 146/1/1 147/1/1
f 122/1/1 80/1/1 81/1/1 135/1/1
f 52/1/1 134/1/1 147/1/1 53/1/1
f 148/1/3 82/1/3 80/1/3 122/1/3
f 149/1/3 148/1/3 122/1/3 123/1/3
f 109/1/6 79/1/6 82/1/6 148/1/6
f 97/2/4 183/29/4 181/30/4 99/2/4
f 94/5/2 96/5/2 100/5/2 98/5/2
f 96/5/1 195/31/1 194/32/1 100/5/1
f 93/2/8 186/33/8 183/29/8 97/2/8
f 51/1/2 56/1/2 6/1/2 1/1/2
f 107/1/5 106/1/5 68/1/5 67/1/5
f 8/1/5 9/1/5 90/1/5 89/1/5
f 9/1/5 10/1/5 91/1/5 90/1/5
f 10/1/5 11/1/5 92/1/5 91/1/5
f 2/1/10 39/1/10 108/1/10 4/1/10
f 39/1/10 40/1/10 107/1/10 108/1/10
f 40/1/10 41/1/10 106/1/10 107/1/10
f 41/1/10 42/1/10 105/1/10 106/1/10
f 42/1/10 57/1/10 104/1/10 105/1/10
f 57/1/10 58/1/10 103/1/10 104/1/10
f 58/1/10 59/1/10 102/1/10 103/1/10
f 59/1/10 60/1/10 101/1/10 102/1/10
f 60/1/10 61/1/10 7/1/10 101/1/10
f 61/1/10 62/1/10 8/1/10 7/1/10
f 62/1/10 63/1/10 9/1/10 8/1/10
f 63/1/10 64/1/10 10/1/10 9/1/10
f 64/1/10 65/1/10 11/1/10 10/1/10
f 3/1/8 12/1/8 39/1/8 2/1/8
f 12/1/8 13/1/8 40/1/8 39/1/8
f 13/1/8 14/1/8 41/1/8 40/1/8
f 14/1/8 15/1/8 42/1/8 41/1/8
f 15/1/8 16/1/8 57/1/8 42/1/8
f 16/1/8 17/1/8 58/1/8 57/1/8
f 17/1/8 18/1/8 59/1/8 58/1/8
f 18/1/8 19/1/8 60/1/8 59/1/8
f 19/1/8 20/1/8 61/1/8 60/1/8
f 20/1/8 35/1/8 62/1/8 61/1/8
f 35/1/8 36/1/8 63/1/8 62/1/8
f 36/1/8 37/1/8 64/1/8 63/1/8
f 37/1/8 38/1/8 65/1/8 64/1/8
f 24/5/4 16/1/4 15/1/4 211/11/4
f 161/8/4 163/23/4 73/2/4 71/2/4
f 164/6/4 161/8/4 71/2/4 21/2/4
f 162/7/4 12/1/4 3/1/4 5/1/4
f 147/1/4 163/23/4 55/1/4 53/1/4
f 162/7/4 164/6/4 21/2/4 23/2/4
f 46/5/4 20/1/4 19/1/4 174/5/4
f 31/1/4 38/1/4 180/15/4 33/1/4
f 45/2/4 37/1/4 36/1/4 185/34/4
f 83/1/4 177/28/4 135/1/4 81/1/4
f 166/5/4 167/5/4 169/5/4 170/5/4
f 166/5/4 168/5/4 24/5/4 22/5/4
f 165/5/4 167/5/4 72/5/4 74/5/4
f 168/5/4 17/1/4 16/1/4 24/5/4
f 146/1/4 73/2/4 163/23/4 147/1/4
f 141/1/4 171/5/4 165/5/4 142/1/4
f 170/5/4 172/5/4 168/5/4 166/5/4
f 171/5/4 169/5/4 167/5/4 165/5/4
f 172/5/4 18/1/4 17/1/4 168/5/4
f 170/5/4 169/5/4 173/5/4 176/5/4
f 176/5/4 174/5/4 172/5/4 170/5/4
f 175/5/4 173/5/4 169/5/4 171/5/4
f 176/5/4 173/5/4 94/5/4 44/5/4
f 174/5/4 19/1/4 18/1/4 172/5/4
f 140/1/4 175/5/4 171/5/4 141/1/4
f 95/2/4 187/35/4 137/1/4 136/1/4
f 183/29/8 186/33/8 191/13/8 193/36/8
f 178/16/4 180/15/4 45/2/4 43/2/4
f 178/16/4 179/17/4 84/1/4 34/1/4
f 177/28/4 179/17/4 93/2/4 95/2/4
f 135/1/4 177/28/4 95/2/4 136/1/4
f 180/15/4 38/1/4 37/1/4 45/2/4
f 185/34/8 188/18/8 49/2/8 45/2/8
f 137/1/4 187/35/4 195/31/4 138/1/4
f 182/22/1 184/19/1 190/37/1 189/14/1
f 181/30/1 187/35/1 95/2/1 99/2/1
f 184/19/4 188/18/4 196/20/4 190/37/4
f 182/22/4 186/33/4 93/2/4 43/2/4
f 181/30/4 183/29/4 193/36/4 194/32/4
f 185/34/4 36/1/4 35/1/4 192/21/4
f 192/21/8 196/20/8 188/18/8 185/34/8
f 193/36/8 191/13/8 94/5/8 98/5/8
f 194/32/1 195/31/1 187/35/1 181/30/1
f 190/37/4 196/20/4 50/5/4 48/5/4
f 138/1/4 195/31/4 96/5/4 139/1/4
f 194/32/4 193/36/4 98/5/4 100/5/4
f 189/14/4 191/13/4 186/33/4 182/22/4
f 189/14/1 190/37/1 48/5/1 44/5/1
f 192/21/4 35/1/4 20/1/4 46/5/4
f 142/1/4 165/5/4 74/5/4 143/1/4
f 143/1/4 74/5/4 212/27/4 144/1/4
f 201/9/1 199/4/1 207/38/1 209/39/1
f 198/10/4 201/9/4 209/39/4 206/12/4
f 202/25/4 197/24/4 205/26/4 208/40/4
f 200/3/8 202/25/8 208/40/8 210/41/8
f 145/1/4 204/42/4 73/2/4 146/1/4
f 203/43/4 14/1/4 13/1/4 23/2/4
f 199/4/4 200/3/4 210/41/4 207/38/4
f 198/10/8 203/43/8 23/2/8 27/2/8
f 204/42/1 197/24/1 77/2/1 73/2/1
f 206/12/8 211/11/8 203/43/8 198/10/8
f 209/39/1 207/38/1 22/5/1 26/5/1
f 206/12/4 209/39/4 26/5/4 28/5/4
f 144/1/4 212/27/4 204/42/4 145/1/4
f 208/40/4 205/26/4 78/5/4 76/5/4
f 211/11/4 15/1/4 14/1/4 203/43/4
f 207/38/4 210/41/4 72/5/4 22/5/4
f 210/41/8 208/40/8 76/5/8 72/5/8
f 212/27/1 205/26/1 197/24/1 204/42/1
usemtl Metal_Black
f 121/1/9 51/1/9 1/1/9 66/1/9
f 79/1/9 109/1/9 92/1/9 29/1/9
f 109/1/9 110/1/9 91/1/9 92/1/9
f 110/1/9 111/1/9 90/1/9 91/1/9
f 111/1/9 112/1/9 89/1/9 90/1/9
f 112/1/9 113/1/9 88/1/9 89/1/9
f 113/1/9 114/1/9 87/1/9 88/1/9
f 114/1/9 115/1/9 86/1/9 87/1/9
f 115/1/9 116/1/9 85/1/9 86/1/9
f 116/1/9 117/1/9 70/1/9 85/1/9
f 117/1/9 118/1/9 69/1/9 70/1/9
f 118/1/9 119/1/9 68/1/9 69/1/9
f 119/1/9 120/1/9 67/1/9 68/1/9
f 120/1/9 121/1/9 66/1/9 67/1/9
