# Blender 4.0.2
# www.blender.org
mtllib Road.mtl
o Road
v -0.500000 0.000000 -1.000000
v -0.500000 0.000000 0.000000
v 0.500000 0.000000 0.000000
v 0.500000 0.000000 -1.000000
v -0.500000 0.000000 -0.692308
v -0.500000 0.000000 -0.769231
v -0.500000 0.000000 -0.846154
v -0.500000 0.000000 -0.923077
v 0.500000 0.000000 -0.923077
v 0.500000 0.000000 -0.846154
v 0.500000 0.000000 -0.769231
v 0.500000 0.000000 -0.692308
v 0.500000 0.000000 -0.615385
v 0.500000 0.000000 -0.538462
v 0.500000 0.000000 -0.461538
v 0.500000 0.000000 -0.384615
v 0.500000 0.000000 -0.307692
v 0.500000 0.000000 -0.230769
v 0.500000 0.000000 -0.153846
v 0.500000 0.000000 -0.076923
v -0.500000 0.000000 -0.615385
v -0.500000 0.000000 -0.538462
v -0.500000 0.000000 -0.461538
v -0.500000 0.000000 -0.384615
v -0.500000 0.000000 -0.307692
v -0.500000 0.000000 -0.230769
v -0.500000 0.000000 -0.153846
v -0.500000 0.000000 -0.076923
vn -0.0000 1.0000 -0.0000
vt 1.000000 0.076923
vt 1.000000 0.153846
vt 0.000000 0.153846
vt 0.000000 0.076923
vt 1.000000 0.615385
vt 1.000000 0.692308
vt 0.000000 0.692308
vt 0.000000 0.615385
vt 1.000000 0.846154
vt 1.000000 0.923077
vt 0.000000 0.923077
vt 0.000000 0.846154
vt 1.000000 0.769231
vt 0.000000 0.769231
vt 1.000000 0.538462
vt 0.000000 0.538462
vt 1.000000 0.461538
vt 0.000000 0.461538
vt 1.000000 0.384615
vt 0.000000 0.384615
vt 1.000000 0.307692
vt 0.000000 0.307692
vt 1.000000 0.230769
vt 0.000000 0.230769
vt 1.000000 0.000000
vt 0.000000 0.000000
vt 1.000000 1.000000
vt 0.000000 1.000000
s 0
usemtl Road_Mat
f 20/1/1 19/2/1 27/3/1 28/4/1
f 13/5/1 12/6/1 5/7/1 21/8/1
f 10/9/1 9/10/1 8/11/1 7/12/1
f 11/13/1 10/9/1 7/12/1 6/14/1
f 14/15/1 13/5/1 21/8/1 22/16/1
f 12/6/1 11/13/1 6/14/1 5/7/1
f 15/17/1 14/15/1 22/16/1 23/18/1
f 16/19/1 15/17/1 23/18/1 24/20/1
f 17/21/1 16/19/1 24/20/1 25/22/1
f 18/23/1 17/21/1 25/22/1 26/24/1
f 3/25/1 20/1/1 28/4/1 2/26/1
f 19/2/1 18/23/1 26/24/1 27/3/1
f 9/10/1 4/27/1 1/28/1 8/11/1
